<?xml version="1.0" encoding="UTF-8" standalone="no"?>
<svg
   xmlns:dc="http://purl.org/dc/elements/1.1/"
   xmlns:cc="http://creativecommons.org/ns#"
   xmlns:rdf="http://www.w3.org/1999/02/22-rdf-syntax-ns#"
   xmlns:svg="http://www.w3.org/2000/svg"
   xmlns="http://www.w3.org/2000/svg"
   xmlns:xlink="http://www.w3.org/1999/xlink"
   xmlns:sodipodi="http://sodipodi.sourceforge.net/DTD/sodipodi-0.dtd"
   xmlns:inkscape="http://www.inkscape.org/namespaces/inkscape"
   width="141.86742"
   height="141.86742"
   viewBox="0 0 472.89043 472.89043"
   id="svg2985"
   version="1.1"
   inkscape:version="0.48.2 r9819"
   sodipodi:docname="javelin-icon-v2.svg">
  <metadata
     id="metadata2992">
    <rdf:RDF>
      <cc:Work
         rdf:about="">
        <dc:format>image/svg+xml</dc:format>
        <dc:type
           rdf:resource="http://purl.org/dc/dcmitype/StillImage" />
        <dc:title />
      </cc:Work>
    </rdf:RDF>
  </metadata>
  <defs
     id="defs2990">
    <linearGradient
       id="linearGradient3450">
      <stop
         style="stop-color:#0a6bcf;stop-opacity:1;"
         offset="0"
         id="stop3452" />
      <stop
         id="stop3464"
         offset="0.56800967"
         style="stop-color:#1288dc;stop-opacity:1;" />
      <stop
         style="stop-color:#45baf5;stop-opacity:1;"
         offset="1"
         id="stop3454" />
    </linearGradient>
    <filter
       id="filter3372"
       inkscape:label="Drop shadow"
       width="1.5"
       height="1.5"
       x="-.25"
       y="-.25">
      <feGaussianBlur
         id="feGaussianBlur3374"
         in="SourceAlpha"
         stdDeviation="2"
         result="blur" />
      <feColorMatrix
         id="feColorMatrix3376"
         result="bluralpha"
         type="matrix"
         values="1 0 0 0 0 0 1 0 0 0 0 0 1 0 0 0 0 0 0.3 0 " />
      <feOffset
         id="feOffset3378"
         in="bluralpha"
         dx="0"
         dy="2"
         result="offsetBlur" />
      <feMerge
         id="feMerge3380">
        <feMergeNode
           id="feMergeNode3382"
           in="offsetBlur" />
        <feMergeNode
           id="feMergeNode3384"
           in="SourceGraphic" />
      </feMerge>
    </filter>
    <linearGradient
       inkscape:collect="always"
       xlink:href="#linearGradient3450"
       id="linearGradient3456"
       x1="88.697121"
       y1="84.459213"
       x2="89.544052"
       y2="74.501907"
       gradientUnits="userSpaceOnUse" />
    <filter
       inkscape:collect="always"
       id="filter3811">
      <feGaussianBlur
         inkscape:collect="always"
         stdDeviation="3.1576525"
         id="feGaussianBlur3813" />
    </filter>
  </defs>
  <sodipodi:namedview
     pagecolor="#ffffff"
     bordercolor="#666666"
     borderopacity="1"
     objecttolerance="10"
     gridtolerance="10"
     guidetolerance="10"
     inkscape:pageopacity="0"
     inkscape:pageshadow="2"
     inkscape:window-width="1440"
     inkscape:window-height="801"
     id="namedview2988"
     showgrid="false"
     inkscape:zoom="4"
     inkscape:cx="42.42945"
     inkscape:cy="71.079064"
     inkscape:window-x="0"
     inkscape:window-y="0"
     inkscape:window-maximized="1"
     inkscape:current-layer="svg2985"
     fit-margin-top="0"
     fit-margin-left="0"
     fit-margin-right="0"
     fit-margin-bottom="0" />
  <path
     sodipodi:type="arc"
     style="fill:url(#linearGradient3456);fill-opacity:1"
     id="path2994"
     sodipodi:cx="88.702301"
     sodipodi:cy="80.182869"
     sodipodi:rx="9.5217161"
     sodipodi:ry="6.5148582"
     d="m 98.224017,80.182869 a 9.5217161,6.5148582 0 1 1 -19.043432,0 9.5217161,6.5148582 0 1 1 19.043432,0 z"
     transform="matrix(24.832206,0,0,36.293226,-1966.2286,-2673.6498)" />
  <path
     sodipodi:nodetypes="ssssssccccccccccsssccssccccccccs"
     inkscape:connector-curvature="0"
     id="path2999"
     d="m 236.39911,52.790463 c -102.90756,0 -186.249212,83.445977 -186.249212,186.353767 0,102.9078 83.341652,186.24963 186.249212,186.24963 102.90756,0 186.35337,-83.34183 186.35337,-186.24963 0,-102.90779 -83.44581,-186.353767 -186.35337,-186.353767 z m 0,42.604085 c 52.42638,0 98.32968,28.070652 123.43697,69.999832 0.3993,2.74508 0.22233,5.41777 -1.04167,7.91665 -2.60998,5.14 -7.62246,7.05165 -12.81244,8.54165 l -29.99987,7.29166 c -40.87465,8.47334 -81.86443,16.1902 -123.0203,23.12495 1.98998,6.97 4.79998,9.2033 4.99998,17.0833 0.33998,14.23 -8.18996,15.59329 -19.99992,19.58329 l -53.02061,19.99996 c -8.00998,2.78 -18.08741,8.44833 -25.937393,2.70833 -1.374996,-1.005 -2.440874,-7.80717 -3.229152,-8.86748 -1.984546,-9.51786 -3.020823,-13.52551 -3.020823,-23.63246 0,-79.38206 64.263338,-143.749682 143.645228,-143.749682 z m 124.2703,87.812302 c 1.79222,-0.10767 3.56122,0.0371 5.31248,0.52083 1.64335,0.45594 2.93902,1.35328 4.06248,2.39583 6.5167,16.40809 10.10412,34.29149 10.10412,53.02072 0,79.38208 -64.36749,143.74971 -143.74938,143.74971 -44.49317,0 -84.15544,-20.33499 -110.52036,-52.08322 -0.66087,-1.98527 -1.04141,-4.06213 -0.83333,-6.45832 0.80999,-9.47 9.68494,-13.32997 16.87492,-17.49997 l 12.08328,-7.18748 40.93733,-24.58329 c 6.89999,-3.92 13.92909,-8.10665 21.97907,-4.16666 5.94999,2.91 9.56329,11.5458 12.08329,17.3958 31.63717,-29.66676 67.08275,-60.51846 96.97875,-83.64566 8.93373,-6.88625 22.14181,-20.7047 34.68735,-21.45829 z"
     style="fill:#000000;fill-opacity:0.49777779000000000;filter:url(#filter3811)" />
  <path
     style="fill:#ffffff;fill-opacity:1;"
     d="m 236.40039,50.122765 c -102.90779,0 -186.249626,83.445995 -186.249626,186.353785 0,102.9078 83.341836,186.24963 186.249626,186.24963 102.90779,0 186.35379,-83.34183 186.35379,-186.24963 0,-102.90779 -83.446,-186.353785 -186.35379,-186.353785 z m 0,42.60408 c 52.4265,0 98.3299,28.070675 123.43725,69.999855 0.3993,2.74508 0.22233,5.41777 -1.04167,7.91665 -2.60999,5.14 -7.62248,7.05165 -12.81247,8.54165 l -29.99994,7.29166 c -40.87474,8.47334 -81.86461,16.1902 -123.02058,23.12495 1.98999,6.97 4.79999,9.2033 4.99999,17.0833 0.33999,14.23 -8.18997,15.59329 -19.99996,19.58329 l -53.02073,19.99996 c -8.01,2.78 -18.08745,8.44833 -25.937448,2.70833 -1.375001,-1.005 -2.440879,-7.80717 -3.229161,-8.86748 -1.984549,-9.51786 -3.020827,-13.52551 -3.020827,-23.63246 0,-79.38206 64.263476,-143.749705 143.645546,-143.749705 z m 124.27058,87.812325 c 1.79223,-0.10767 3.56123,0.0371 5.31249,0.52083 1.64336,0.45594 2.93903,1.35328 4.06249,2.39583 6.51672,16.40809 10.10415,34.29149 10.10415,53.02072 0,79.38208 -64.36764,143.74971 -143.74971,143.74971 -44.49327,0 -84.15563,-20.33499 -110.52061,-52.08322 -0.66087,-1.98527 -1.04141,-4.06213 -0.83333,-6.45832 0.80999,-9.47 9.68496,-13.32997 16.87496,-17.49997 l 12.08331,-7.18748 40.93742,-24.58329 c 6.9,-3.92 13.92912,-8.10665 21.97912,-4.16666 5.95,2.91 9.56331,11.5458 12.08331,17.3958 31.63725,-29.66676 67.08291,-60.51846 96.97897,-83.64566 8.93375,-6.88625 22.14186,-20.7047 34.68743,-21.45829 z"
     id="path2998"
     inkscape:connector-curvature="0"
     sodipodi:nodetypes="ssssssccccccccccsssccssccccccccs" />
  <g
     id="g3769"
     transform="translate(-19.536596,-19.356262)">
    <g
       id="g3772">
      <g
         id="g3775" />
    </g>
  </g>
</svg>
