<?xml version="1.0" encoding="UTF-8" standalone="no"?>
<svg
   xmlns:dc="http://purl.org/dc/elements/1.1/"
   xmlns:cc="http://creativecommons.org/ns#"
   xmlns:rdf="http://www.w3.org/1999/02/22-rdf-syntax-ns#"
   xmlns:svg="http://www.w3.org/2000/svg"
   xmlns="http://www.w3.org/2000/svg"
   xmlns:sodipodi="http://sodipodi.sourceforge.net/DTD/sodipodi-0.dtd"
   xmlns:inkscape="http://www.inkscape.org/namespaces/inkscape"
   width="1.70667in"
   height="1.70667in"
   viewBox="0 0 512 512"
   id="svg2985"
   version="1.1"
   inkscape:version="0.48.2 r9819"
   sodipodi:docname="javelin-icon.svg">
  <metadata
     id="metadata2992">
    <rdf:RDF>
      <cc:Work
         rdf:about="">
        <dc:format>image/svg+xml</dc:format>
        <dc:type
           rdf:resource="http://purl.org/dc/dcmitype/StillImage" />
        <dc:title></dc:title>
      </cc:Work>
    </rdf:RDF>
  </metadata>
  <defs
     id="defs2990" />
  <sodipodi:namedview
     pagecolor="#ffffff"
     bordercolor="#666666"
     borderopacity="1"
     objecttolerance="10"
     gridtolerance="10"
     guidetolerance="10"
     inkscape:pageopacity="0"
     inkscape:pageshadow="2"
     inkscape:window-width="1440"
     inkscape:window-height="801"
     id="namedview2988"
     showgrid="false"
     inkscape:zoom="3.9908773"
     inkscape:cx="92.210302"
     inkscape:cy="69.863777"
     inkscape:window-x="0"
     inkscape:window-y="0"
     inkscape:window-maximized="1"
     inkscape:current-layer="svg2985" />
  <path
     sodipodi:type="arc"
     style="fill:#0a66c6;fill-opacity:1"
     id="path2994"
     sodipodi:cx="88.702301"
     sodipodi:cy="80.182869"
     sodipodi:rx="9.5217161"
     sodipodi:ry="6.5148582"
     d="m 98.224017,80.182869 a 9.5217161,6.5148582 0 1 1 -19.043432,0 9.5217161,6.5148582 0 1 1 19.043432,0 z"
     transform="matrix(24.832206,0,0,36.293226,-1946.692,-2654.2935)" />
  <path
     style="fill:#ffffff;fill-opacity:1"
     d="m 76.78125,20.84375 c -30.8724,0 -55.875,25.03385 -55.875,55.90625 0,30.8724 25.0026,55.875 55.875,55.875 30.8724,0 55.90625,-25.0026 55.90625,-55.875 0,-30.8724 -25.03385,-55.90625 -55.90625,-55.90625 z m 0,12.78125 c 15.727983,0 29.49903,8.421219 37.03125,21 0.11979,0.823526 0.0667,1.625332 -0.3125,2.375 -0.783,1.542003 -2.28675,2.115499 -3.84375,2.5625 l -9,2.1875 C 88.393803,64.292007 76.096817,66.607072 63.75,68.6875 c 0.597001,2.091004 1.44,2.760995 1.5,5.125 0.102,4.269009 -2.456993,4.677998 -6,5.875 l -15.90625,6 C 40.940745,86.521502 37.917505,88.222003 35.5625,86.5 35.149999,86.198499 34.830235,84.157844 34.59375,83.83975 33.998384,80.984387 33.6875,79.782089 33.6875,76.75 c 0,-23.814669 19.279081,-43.125 43.09375,-43.125 z m 37.28125,26.34375 c 0.53767,-0.0323 1.06837,0.01112 1.59375,0.15625 0.49301,0.136783 0.88171,0.405985 1.21875,0.71875 1.95502,4.922437 3.03125,10.287468 3.03125,15.90625 0,23.81467 -19.31033,43.125 -43.125,43.125 -13.348008,0 -25.24674,-6.10051 -33.15625,-15.625 -0.198262,-0.59558 -0.312422,-1.21864 -0.25,-1.9375 0.243,-2.841006 2.905496,-3.998997 5.0625,-5.25 l 3.625,-2.15625 12.28125,-7.375 c 2.070004,-1.176002 4.178745,-2.432002 6.59375,-1.25 1.785004,0.873002 2.868998,3.463746 3.625,5.21875 9.491193,-8.900046 20.124914,-18.155574 29.09375,-25.09375 2.68013,-2.065879 6.64257,-6.211421 10.40625,-6.4375 z"
     transform="scale(3.3333266,3.3333266)"
     id="path2998"
     inkscape:connector-curvature="0"
     sodipodi:nodetypes="ssssssccccccccccsssccssccccccccs" />
  <g
     id="g3769">
    <g
       id="g3772">
      <g
         id="g3775" />
    </g>
  </g>
</svg>
